<svg xmlns="http://www.w3.org/2000/svg" width="1200" height="630" viewBox="0 0 1200 630">
  <defs>
    <linearGradient id="bg" x1="0%" y1="0%" x2="100%" y2="100%">
      <stop offset="0%" style="stop-color:#000000"/>
      <stop offset="100%" style="stop-color:#0a1a0a"/>
    </linearGradient>
    <filter id="glow">
      <feGaussianBlur stdDeviation="3" result="coloredBlur"/>
      <feMerge>
        <feMergeNode in="coloredBlur"/>
        <feMergeNode in="SourceGraphic"/>
      </feMerge>
    </filter>
  </defs>

  <!-- Background -->
  <rect width="1200" height="630" fill="url(#bg)"/>

  <!-- Border glow -->
  <rect x="20" y="20" width="1160" height="590" fill="none" stroke="#39ff14" stroke-width="4" opacity="0.3"/>
  <rect x="30" y="30" width="1140" height="570" fill="none" stroke="#39ff14" stroke-width="2" opacity="0.5"/>

  <!-- Ritual Logo -->
  <g transform="translate(440, 80) scale(1.5)" fill="#39ff14" filter="url(#glow)">
    <path d="M93.7673 89.8707L98.0399 94.1712L112.869 79.2458L108.596 74.9454L93.7673 89.8707Z"/>
    <path d="M67 95.3096L81.9546 110.361L91.5054 100.749L87.2325 96.4479L81.9545 101.76L75.5454 95.3095L81.9545 88.8587L97.9144 104.922L102.187 100.622L81.9544 80.2577L67 95.3096Z"/>
    <path d="M108.722 85.6967L104.449 89.9972L119.278 104.923L123.551 100.622L108.722 85.6967Z"/>
    <path d="M134.233 100.749L129.96 96.448L115.131 111.373L119.404 115.674L134.233 100.749Z"/>
    <path d="M88.3636 73.8069L97.9144 83.4198L102.187 79.1194L96.909 73.807L103.318 67.3562L119.278 83.4199L123.551 79.1193L103.318 58.755L88.3636 73.8069Z"/>
    <path d="M104.449 111.5L124.682 131.864L139.636 116.812L130.086 107.199L125.813 111.5L131.091 116.813L124.682 123.263L108.722 107.2L104.449 111.5Z"/>
    <path d="M125.813 89.9972L146.045 110.362L161 95.3097L146.045 80.2578L136.495 89.8708L140.767 94.1714L146.046 88.859L152.455 95.3098L146.046 101.761L130.086 85.6968L125.813 89.9972Z"/>
    <path d="M88.3636 116.812L103.318 131.864L112.869 122.251L108.596 117.951L103.318 123.263L96.909 116.812L112.869 100.748L108.596 96.4478L88.3636 116.812Z"/>
    <path d="M115.133 68.3662L119.406 72.6667L124.684 67.3543L131.093 73.8051L115.133 89.8688L119.405 94.1693L139.638 73.805L124.684 58.7531L115.133 68.3662Z"/>
    <path d="M106.334 55.8L114.084 48L121.834 55.8L114.084 63.6001L106.334 55.8Z"/>
    <path d="M106.335 134.2L114.084 126.4L121.834 134.2L114.084 142L106.335 134.2Z"/>
  </g>

  <!-- JUMP text -->
  <text x="600" y="340" font-family="Arial Black, sans-serif" font-size="120" font-weight="900" fill="#39ff14" text-anchor="middle" filter="url(#glow)">JUMP</text>

  <!-- Tagline -->
  <text x="600" y="420" font-family="Arial, sans-serif" font-size="36" fill="#ffffff" text-anchor="middle" opacity="0.8">Can you beat my score?</text>

  <!-- Footer -->
  <text x="600" y="560" font-family="Arial, sans-serif" font-size="24" fill="#39ff14" text-anchor="middle" opacity="0.6">@megymin_xz x @emeli_mag</text>

  <!-- Decorative corners -->
  <path d="M40 40 L80 40 L80 50 L50 50 L50 80 L40 80 Z" fill="#39ff14" opacity="0.5"/>
  <path d="M1160 40 L1120 40 L1120 50 L1150 50 L1150 80 L1160 80 Z" fill="#39ff14" opacity="0.5"/>
  <path d="M40 590 L80 590 L80 580 L50 580 L50 550 L40 550 Z" fill="#39ff14" opacity="0.5"/>
  <path d="M1160 590 L1120 590 L1120 580 L1150 580 L1150 550 L1160 550 Z" fill="#39ff14" opacity="0.5"/>
</svg>
