<svg width="1200" height="675" viewBox="0 0 1200 675" fill="none" xmlns="http://www.w3.org/2000/svg">
<g clip-path="url(#clip0_2883_1677)">
<rect width="1200" height="675" fill="black"/>
<rect width="1200" height="675" fill="white" fill-opacity="0.04"/>
<g opacity="0.1">
<path d="M1058.44 830.423L1150.56 783.508L1234.06 725.712L1301.63 662.491L1337.76 615.825" stroke="white" stroke-width="1.33333" stroke-linecap="round" stroke-linejoin="round"/>
<path d="M808.602 830.423L906.046 808.397L1006.88 773.36L1096.6 729.58L1173.49 678.829L1236.6 622.967L1285.63 563.792L1320.81 502.965L1337.76 456.034" stroke="white" stroke-width="1.33333" stroke-linecap="round" stroke-linejoin="round"/>
<path d="M164.706 830.423L89.0332 794.543L1.76205 738.145L-69.7752 675.862L-125.243 609.857L-138.422 587.394" stroke="white" stroke-width="1.33333" stroke-linecap="round" stroke-linejoin="round"/>
<path d="M415.823 830.423L336.503 814.387L233.312 781.352L140.707 739.236L60.5534 689.773L-6.00975 634.813L-58.5324 576.18L-97.1497 515.566L-122.453 454.461L-135.366 394.113L-137 335.522L-128.571 279.452L-111.304 226.459L-86.3812 176.922L-54.9045 131.076L-17.8723 89.0463L23.8232 50.8734L69.4047 16.5346L94.8817 0.577128" stroke="white" stroke-width="1.33333" stroke-linecap="round" stroke-linejoin="round"/>
<path d="M1049.69 830.423L1006.88 773.36L964.07 720.837L923.975 675.956L886.801 638.444L852.646 607.924L789.361 627.462L721.916 641.106L651.798 648.396L580.636 649.081L510.107 643.139L441.864 630.776L377.432 612.406L318.148 588.627L265.103 560.178L219.117 527.882L180.727 492.609L150.199 455.218L127.57 416.536L112.671 377.323L105.176 338.248L104.641 299.898L110.549 262.756L122.337 227.221L139.43 193.609L161.25 162.16L187.243 133.057L216.886 106.427L249.687 82.3568L285.193 60.9031L322.992 42.096L362.702 25.9492L403.978 12.4662L446.502 1.64011L452.153 0.577128" stroke="white" stroke-width="1.33333" stroke-linecap="round" stroke-linejoin="round"/>
<path d="M852.648 607.924L910.485 583.119L951.981 609.761L996.962 642.856L1045.26 682.722L1096.61 729.58L1150.56 783.508L1193.73 830.423" stroke="white" stroke-width="1.33333" stroke-linecap="round" stroke-linejoin="round"/>
<path d="M1337.76 440.819L1276.52 427.553L1212.09 417.275L1150.26 410.972L1091.58 408.473L1036.52 409.554M1036.52 409.554L1017.05 443.924L990.772 477.107L957.731 508.416L918.172 537.131L872.551 562.536L821.535 583.951L793.437 566.043L744.977 580.494L693.705 590.539L640.633 595.891L586.863 596.393L533.517 592.033L481.702 582.935L432.461 569.364M1036.52 409.554L1049.28 374.643L1055.6 339.771L1055.78 305.446L1050.27 272.108L1039.5 240.116L1023.96 209.771L1004.13 181.308L980.479 154.909L953.471 130.714L923.537 108.823L891.08 89.3071L856.478 72.2163L820.086 57.578L782.229 45.412L743.207 35.7296L703.315 28.5299L662.815 23.8163L621.973 21.5877L581.041 21.8439L540.275 24.5839L499.928 29.8111L460.263 37.522L421.557 47.7179L384.095 60.3941L348.186 75.5392L314.164 93.1333L282.386 113.143L253.23 135.517L227.113 160.175L204.468 187.012L185.755 215.88L171.448 246.584L162.029 278.881L157.969 312.456L159.713 346.931L167.656 381.855L182.117 416.704L203.309 450.883L231.303 483.739L266.006 514.571L307.124 542.663L354.153 567.297L406.371 587.812L432.461 569.364M432.461 569.364L386.726 551.694L345.292 530.4L308.789 506.022L277.682 479.145L252.265 450.365L232.673 420.271L218.902 389.426L210.827 358.346L208.225 327.503L210.804 297.306L218.219 268.112L230.088 240.219L246.018 213.872L265.607 189.273L288.459 166.579L314.19 145.912L342.432 127.367L372.837 111.014L405.072 96.8982L438.828 85.0598L473.804 75.5195L509.726 68.2933L546.324 63.3916L583.338 60.8177L620.514 60.5776L657.598 62.6702L694.342 67.0918L730.487 73.8402L765.766 82.9039L799.899 94.2713L832.599 107.918L863.555 123.813L892.435 141.913L918.9 162.149L942.583 184.434L963.099 208.653L980.053 234.654L993.046 262.246L1001.68 291.195L1005.56 321.213L1004.34 351.954L997.694 383.021L985.393 413.957L967.288 444.25L943.33 473.348L900.188 473.446L873.706 497.221L842.61 518.837L807.294 537.814L768.265 553.701L726.176 566.108L709.514 557.082L694.881 552.906L682.161 553.109L676.942 554.109L674.014 554.668L668.865 550.826L660.112 545.587L650.748 541.16L640.881 537.587L630.624 534.903L620.09 533.133L609.397 532.29L598.658 532.387L587.993 533.421L577.52 535.382L567.349 538.251L557.599 542.004L548.379 546.603L539.796 552.002L537.334 554.327L526.419 554.443L513.393 558.875L498.522 568.203L455.788 556.557L432.461 569.364Z" stroke="white" stroke-width="1.33333" stroke-linecap="round" stroke-linejoin="round"/>
<path d="M-138.422 172.081L-102.782 123.182L-61.4714 78.4973L-15.5147 38.0991L34.2564 1.90675L69.4043 16.5347L105.676 34.4877L142.648 55.6101L179.872 79.6826L216.887 106.427L253.231 135.517L288.459 166.579L322.148 199.213L353.916 232.997L383.423 267.502M383.423 267.502L410.381 302.307L434.564 337.001L455.804 371.203L473.984 404.56L489.05 436.763L500.997 467.539L494.761 476.629L489.829 486.248L486.281 496.291L484.189 506.642L494.72 532.987L494.352 540.607L493.409 540.728L484.621 537.434L484.286 537.269L483.585 536.923L478.39 533.404L460.891 525.693L437.304 521.024L412.697 505.263L391.247 487.698L373.194 468.661L358.703 448.502L347.858 427.565L340.677 406.182L337.11 384.671L337.059 363.325L340.378 342.412L346.889 322.175L356.385 302.825L368.642 284.547L383.423 267.502ZM383.423 267.502L400.48 251.825L419.57 237.631L440.445 225.012L462.856 214.044L486.565 204.787L511.333 197.291L536.927 191.591L563.114 187.713L589.67 185.674L616.372 185.484L642.987 187.142L669.298 190.642L695.078 195.968L720.096 203.096L744.116 211.993L766.904 222.613L788.218 234.897L807.81 248.776L825.438 264.155L840.848 280.927L853.794 298.962L864.04 318.107L871.35 338.178L875.516 358.97L876.35 380.247L841.204 402.846L838.467 421.798L832.622 440.624L805.138 457.753L802.127 459.631L775.895 479.949L756.321 498.915L753.823 501.337L738.145 520.656L735.778 523.575L728.52 535.299" stroke="white" stroke-width="1.33333" stroke-linecap="round" stroke-linejoin="round"/>
<path d="M199.434 830.423L233.312 781.352L273.419 727.776L310.91 681.966L345.609 643.638L377.434 612.406L406.371 587.813L462.842 603.611L522.449 614.223L583.926 619.316L645.924 618.727L707.066 612.478L766.014 600.766L821.535 583.951L852.647 607.924" stroke="white" stroke-width="1.33333" stroke-linecap="round" stroke-linejoin="round"/>
<path d="M449.562 830.423L465.233 775.798L481.501 723.418L496.464 679.356L510.108 643.139L522.448 614.223L533.517 592.033L543.366 575.995L552.056 565.548L559.652 560.155L576.135 560.797L586.901 561.659L593.725 562.886L595.424 561.661L598.122 561.636L609.488 561.531L620.765 561.428L624.816 561.39L631.736 561.456L650.199 560.378L661.946 559.218L676.908 556.351L694.881 552.906L696.569 552.414L706.654 549.482L726.26 543.778L755.56 532.037L782.327 517.939L806.172 501.78L826.789 483.882L861.358 477.068L880.699 454.889L895.798 431.591L906.609 407.579L950.067 394.096L997.694 383.021L1049.28 374.643L1104.56 369.235L1163.08 367.054L1224.38 368.322L1287.83 373.218L1337.76 379.869" stroke="white" stroke-width="1.33333" stroke-linecap="round" stroke-linejoin="round"/>
<path d="M-97.2461 830.423L-59.0274 792.909L1.76339 738.145L60.5543 689.773L116.705 647.902L169.725 612.486L219.267 583.337L265.106 560.178L307.126 542.663L345.294 530.4L379.646 522.981L410.274 519.991L437.305 521.024L464.743 534.66L488.35 543.531L494.108 545.694L494.605 545.88L510.362 547.081" stroke="white" stroke-width="1.33333" stroke-linecap="round" stroke-linejoin="round"/>
<path d="M1053.2 0.577107L1097.75 28.2286L1140.21 59.9659L1178.94 95.1772L1213.24 133.842L1242.32 175.887L1265.29 221.16L1281.2 269.414L1289.06 320.273L1287.83 373.218L1276.52 427.553L1254.21 482.4L1220.18 536.676L1173.99 589.118L1115.54 638.305L1045.26 682.722L964.07 720.837L873.499 751.206L775.634 772.596L673.03 784.088L568.56 785.172L465.232 775.798L365.972 756.388L273.418 727.776L189.776 691.145L116.702 647.902L55.2759 599.572L6.02071 547.681L-31.0361 493.674L-56.2655 438.851L-70.3319 384.332L-74.1055 331.037L-68.561 279.701L-54.7214 230.875L-33.5938 184.963L-6.14075 142.237L26.7461 102.866L64.2588 66.9406L105.675 34.4877L150.357 5.49387L159.471 0.577107" stroke="white" stroke-width="1.33333" stroke-linecap="round" stroke-linejoin="round"/>
<path d="M-138.422 172.172L-86.3815 176.922L-33.5924 184.963L19.2211 196.158L71.4045 210.322L122.339 227.221L171.449 246.584L218.219 268.112L262.2 291.48L303.02 316.357L340.378 342.412L374.057 369.323L403.907 396.778L429.841 424.492L451.84 452.196L469.931 479.65L469.175 491.246L470.147 502.92L472.873 514.521L477.351 525.893L481.872 533.892" stroke="white" stroke-width="1.33333" stroke-linecap="round" stroke-linejoin="round"/>
<path d="M1175.36 0.577078L1218.11 30.2969L1254.93 20.5049L1306.42 62.1449L1337.75 92.937" stroke="white" stroke-width="1.33333" stroke-linecap="round" stroke-linejoin="round"/>
<path d="M-138.422 107.476L-103.527 71.3091L-53.3007 28.7111L-15.5147 38.0991L23.8228 50.8734L64.2602 66.9406L105.313 86.1459L146.477 108.274L187.245 133.057L227.113 160.175L265.608 189.273L302.282 219.968L336.742 251.86L368.642 284.547L397.7 317.631L423.695 350.732L446.471 383.49L465.924 415.58L482.018 446.711L494.761 476.629L504.208 505.116L499.754 514.06L496.571 523.386L501.92 543.876L501.964 543.932" stroke="white" stroke-width="1.33333" stroke-linecap="round" stroke-linejoin="round"/>
<path d="M978.331 0.577093L1020.19 22.9679L1061.68 49.7042L1100.04 79.5937L1134.68 112.614L1164.98 148.706L1190.2 187.755L1209.59 229.574L1222.31 273.887L1227.52 320.307L1224.39 368.322L1212.09 417.275L1189.97 466.355L1157.49 514.602L1114.39 560.918L1060.74 604.09L996.962 642.856L923.979 675.956L843.133 702.22L756.21 720.66L665.355 730.549L572.958 731.481L481.504 723.418L393.416 706.692L310.912 681.966L235.861 650.185L169.725 612.486L113.504 570.117L67.7509 524.347L32.6134 476.404L7.8958 427.411L-6.86253 378.361L-12.3125 330.095L-9.22395 283.299L1.56866 238.517L19.2228 196.158L42.9098 156.519L71.8493 119.806L105.314 86.1459L142.649 55.61L183.262 28.2228L226.625 3.98188L233.982 0.577093" stroke="white" stroke-width="1.33333" stroke-linecap="round" stroke-linejoin="round"/>
<path d="M58.1445 830.423L89.0335 794.543L140.707 739.236L189.777 691.145L235.86 650.185L278.7 616.123L318.149 588.627L354.154 567.297L386.727 551.694L415.94 541.355L441.899 535.825L464.742 534.66L484.622 537.434" stroke="white" stroke-width="1.33333" stroke-linecap="round" stroke-linejoin="round"/>
<path d="M565.121 830.423L568.559 785.172L572.954 731.481L576.981 686.283L580.635 649.081L583.924 619.316L586.861 596.393L589.46 579.726L591.742 568.739L593.724 562.886" stroke="white" stroke-width="1.33333" stroke-linecap="round" stroke-linejoin="round"/>
<path d="M-138.422 531.706L-97.15 515.566L-31.0348 493.674L32.6118 476.404L93.1824 463.646L150.201 455.218L203.31 450.883L252.266 450.365L296.926 453.364L337.232 459.567L373.194 468.661L404.879 480.341L432.395 494.313L446.33 508.681L462.618 519.269L468.09 522.824" stroke="white" stroke-width="1.33333" stroke-linecap="round" stroke-linejoin="round"/>
<path d="M1337.75 686.921L1301.63 662.491L1236.6 622.967L1173.99 589.118L1114.39 560.918L1058.27 538.229L1009.41 576.015L951.975 609.761L886.798 638.443L815.065 661.116L738.292 676.988L658.271 685.484L576.98 686.283L496.462 679.356L418.724 664.967L345.605 643.638L278.696 616.123L219.262 583.337L168.217 546.298L126.113 506.057L93.1785 463.646L69.3507 420.032L54.3327 376.085L47.6523 332.562L48.7176 290.1L56.8661 249.216L71.4005 210.321L91.6238 173.725L116.862 139.658L146.473 108.274L179.868 79.6825L216.505 53.9365L255.888 31.0713L297.577 11.0857L324.355 0.577073" stroke="white" stroke-width="1.33333" stroke-linecap="round" stroke-linejoin="round"/>
<path d="M759.609 0.577013L798.953 10.0169L840.638 22.9529L880.849 38.5491L919.25 56.8092L955.463 77.7192L989.085 101.252L1019.67 127.361L1046.73 155.964L1069.76 186.941L1088.19 220.126L1101.46 255.288L1108.99 292.126L1110.2 330.265L1104.56 369.235L1091.58 408.473L1070.95 447.324L1042.42 485.045" stroke="white" stroke-width="1.33333" stroke-linecap="round" stroke-linejoin="round"/>
<path d="M-138.422 119.687L-102.782 123.182L-54.9049 131.076L-6.13936 142.237L42.9081 156.519L91.6278 173.725L139.431 193.609L185.756 215.88L230.089 240.219L271.972 266.282L311.013 293.718L346.889 322.175L379.349 351.303L408.21 380.774L433.36 410.275L429.841 424.492L428.486 439.044L429.372 453.758L432.551 468.444L438.045 482.899L445.842 496.923L455.885 510.301L468.09 522.824L476.731 529.13L478.478 531.331L479.907 532.557L481.792 533.861L481.917 533.971L482.163 534.047L482.441 534.243" stroke="white" stroke-width="1.33333" stroke-linecap="round" stroke-linejoin="round"/>
<path d="M-138.422 67.9954L-103.527 71.309L-61.4714 78.4971L-17.8726 89.0462L26.7474 102.866L71.8477 119.806L116.866 139.658L161.252 162.16L204.468 187.012L246.018 213.872L285.444 242.378L322.346 272.156L356.386 302.824L387.291 334.013L414.856 365.369L438.943 396.559L459.473 427.277L476.426 457.253L472.37 468.274L469.931 479.65L484.189 506.642L483.605 517.177L484.565 527.767L486.615 536.305" stroke="white" stroke-width="1.33333" stroke-linecap="round" stroke-linejoin="round"/>
<path d="M345.621 0.57701L362.7 25.9491L384.093 60.3941L405.07 96.898L425.361 135.005L444.704 174.224L462.853 214.044L479.593 253.948L494.736 293.435L508.135 332.026L519.678 369.28L529.292 404.802L536.944 438.254L542.633 469.353L546.392 497.879L548.28 523.664L548.377 546.603L547.618 556.129" stroke="white" stroke-width="1.33333" stroke-linecap="round" stroke-linejoin="round"/>
<path d="M653.891 558.52L660.893 557.18L669.238 555.582L674.012 554.668" stroke="white" stroke-width="1.33333" stroke-linecap="round" stroke-linejoin="round"/>
<path d="M709.148 545.273L712.839 543.483L716.22 541.815L716.849 541.541L717.222 541.751L723.135 539.688L726.673 538.274L734.421 535.178L755.559 532.037L779.798 532.776L807.292 537.814L838.172 547.583L878.435 525.606L918.17 537.131L961.846 553.807L1009.41 576.015L1060.73 604.09L1115.54 638.305L1173.49 678.829L1234.05 725.712L1296.56 778.84L1337.75 817.097" stroke="white" stroke-width="1.33333" stroke-linecap="round" stroke-linejoin="round"/>
<path d="M-138.422 225.94L-111.305 226.459L-54.72 230.875L1.567 238.516L56.87 249.216L110.55 262.756L162.03 278.881L210.805 297.306L256.45 317.73L298.622 339.84L337.059 363.325L371.579 387.877L402.07 413.21L402.807 429.867L406.189 446.538L412.256 462.994L435.207 480.71L438.045 482.899L457.057 501.373L459.698 503.939L474.8 522.717L477.351 525.892L482.337 534.073" stroke="white" stroke-width="1.33333" stroke-linecap="round" stroke-linejoin="round"/>
<path d="M917.642 830.423L906.046 808.397L873.499 751.207L843.13 702.22L815.067 661.116L789.362 627.462L766.013 600.766L744.976 580.494L726.176 566.108L681.775 574.716L671.213 564.452M671.213 564.452L631.714 568.371L591.743 568.739L552.056 565.548L513.392 558.875L476.458 548.887L441.898 535.825L410.271 519.991L382.056 501.741M671.213 564.452L709.513 557.082L745.917 546.437L779.799 532.776L810.615 516.413L837.914 497.711L861.358 477.068L900.187 473.446L921.807 448.008L938.439 421.399L950.067 394.096L956.77 366.539L958.716 339.135L956.135 312.246L949.298 286.191L938.511 261.242L924.108 237.63L906.422 215.549L885.789 195.152L862.549 176.567L837.018 159.895L809.517 145.209L780.343 132.57L749.782 122.022L718.115 113.597L685.604 107.316L652.508 103.196L619.078 101.247L585.559 101.471L552.198 103.869L519.242 108.435L486.945 115.157L455.563 124.023L425.363 135.005L396.627 148.07L369.641 163.172L344.711 180.246L322.147 199.213L302.28 219.968L285.442 242.379L271.971 266.283L262.198 291.48L256.448 317.731L255.02 344.753L258.175 372.22L266.128 399.758L279.025 426.957L296.925 453.364L319.787 478.499L347.456 501.87L382.056 501.741M671.213 564.452L661.946 559.218L653.891 558.52L651.724 558.734L646.987 559.202L641.987 559.696L631.736 561.456L628.027 562.571L594.573 562.273L586.901 561.659L576.135 560.797L566.221 559.322L566.082 559.34L559.651 560.155L557.918 559.857L556.405 559.598L539.462 555.707L537.707 554.428L536.959 554.225L531.919 552.871L524.844 550.972L518.69 549.318L518.623 549.3L512.41 547.63L511.059 547.268L510.483 547.09L507.004 545.786L504.826 544.97L501.919 543.876L501.701 543.763L497.108 541.769L493.882 540.412L492.848 539.387L488.655 537.315L486.613 536.306L485.612 535.81L482.44 534.243L481.986 534.019L481.916 533.971L481.563 533.809L481.408 533.711L480.589 533.275L479.393 532.485L478.769 531.203L474.971 528.693L462.661 521.866L439.511 512.085L412.696 505.263L382.056 501.741M382.056 501.741L357.621 481.462L337.231 459.567L321.052 436.467L309.15 412.569L301.513 388.261L298.053 363.909L298.62 339.84L303.019 316.357L311.012 293.718L322.344 272.156L336.74 251.86L353.914 232.997L373.581 215.701L395.454 200.083L419.255 186.234L444.706 174.224L471.544 164.108L499.51 155.928L528.349 149.716L557.82 145.493L587.679 143.275L617.691 143.067L647.616 144.871L677.221 148.682L706.259 154.485L734.494 162.262L761.669 171.982L787.528 183.606L811.808 197.082L834.232 212.341L854.522 229.3L872.395 247.849L887.559 267.863L899.731 289.179L908.629 311.611L913.99 334.943L915.57 358.912L913.165 383.233L906.609 407.579L867.445 423.181L857.533 444.238L823.638 459.05L811.532 476.793L783.321 491.225L763.132 504.93L759.189 507.606L743.15 521.953L738.982 525.681L732.729 531.907L730.186 534.428L730.078 534.499L729.636 534.796L728.441 535.421L725.08 537.182L724.877 537.287L724.745 537.356L724.454 537.508L722.507 539.101L717.148 541.409L716.932 541.446L716.85 541.541L716.76 541.619L716.334 542.088L712.84 543.483L708.473 545.226L706.607 546.012L703.334 546.962L702.746 547.133L697.047 548.787L692.501 550.108L690.777 550.608L690.455 550.701L684.299 552.487L682.16 553.109" stroke="white" stroke-width="1.33333" stroke-linecap="round" stroke-linejoin="round"/>
<path d="M707.801 545.177L714.124 521.436L724.557 494.191L738.587 465.968L756.294 436.963L777.729 407.4L802.88 377.542L831.691 347.672L864.04 318.107L899.733 289.179L938.513 261.242L980.054 234.654L1023.96 209.771L1069.76 186.941L1116.95 166.49L1164.98 148.706L1213.25 133.842L1261.16 122.098L1308.13 113.616L1337.76 110.271" stroke="white" stroke-width="1.33333" stroke-linecap="round" stroke-linejoin="round"/>
<path d="M1154.45 0.577021L1133.09 9.92808L1097.75 28.2286L1061.68 49.7041L1025.3 74.139L989.084 101.252L953.469 130.714L918.899 162.149L885.788 195.152L854.522 229.299L825.435 264.155L798.816 299.29L774.893 334.295L753.844 368.778L735.786 402.384L720.774 434.796L708.824 465.739L715.378 474.709L720.648 484.227L724.554 494.191L727.023 504.489L727.993 514.996L727.421 525.587L725.294 536.123L724.744 537.356" stroke="white" stroke-width="1.33333" stroke-linecap="round" stroke-linejoin="round"/>
<path d="M736.258 531.331L739.258 529.32L754.266 519.255L770.017 505.809L796.389 493.566L811.533 476.793L843.958 464.584L857.533 444.238L895.798 431.591L938.439 421.399L985.393 413.957L1036.52 409.554" stroke="white" stroke-width="1.33333" stroke-linecap="round" stroke-linejoin="round"/>
<path d="M887.379 0.577095L905.396 7.32435L947.7 26.7143L987.817 48.9875L1025.3 74.1391L1059.68 102.15L1090.43 132.963L1116.95 166.49L1138.62 202.581L1154.76 241.024L1164.69 281.527L1167.69 323.702L1163.09 367.054L1150.26 410.972L1128.71 454.722L1098.09 497.459L1058.28 538.229" stroke="white" stroke-width="1.33333" stroke-linecap="round" stroke-linejoin="round"/>
<path d="M697.048 548.787L699.485 530.298L705.849 503.331L715.38 474.709L728.159 444.608L720.777 434.796L712.086 425.699L702.213 417.409L691.282 410.004L679.429 403.552L666.792 398.112L653.51 393.728L639.732 390.438L625.604 388.27L611.269 387.241L596.881 387.359L582.587 388.624L568.534 391.026L554.872 394.544L541.743 399.149L529.295 404.802L517.666 411.456L506.996 419.049L497.415 427.511L489.05 436.763L482.018 446.711L476.426 457.253L489.829 486.248L499.754 514.06L506.306 540.516L507 545.748" stroke="white" stroke-width="1.33333" stroke-linecap="round" stroke-linejoin="round"/>
<path d="M1117.5 0.577116L1133.09 9.92818L1179.73 43.4821L1222.68 80.8621L1261.16 122.098L1294.33 167.164L1321.18 215.953L1337.76 260.454" stroke="white" stroke-width="1.33333" stroke-linecap="round" stroke-linejoin="round"/>
<path d="M328.953 830.423L336.505 814.387L365.975 756.388L393.417 706.692L418.73 664.967L441.868 630.776L462.845 603.611L481.705 582.935L498.524 568.203L543.37 575.995L589.465 579.726L635.908 579.296L681.778 574.716L693.708 590.539L707.068 612.478L721.919 641.106L738.298 676.988L756.211 720.66L775.637 772.596L795.565 830.423" stroke="white" stroke-width="1.33333" stroke-linecap="round" stroke-linejoin="round"/>
<path d="M651.723 558.734L650.746 541.16L650.997 518.279L652.674 492.392L655.838 463.613L660.536 432.108L666.789 398.112L674.587 361.918L683.896 323.883L694.654 284.42L706.761 243.99L720.093 203.096L734.492 162.262L749.781 122.022L765.763 82.9038L782.226 45.4118L798.95 10.017L803.765 0.577092" stroke="white" stroke-width="1.33333" stroke-linecap="round" stroke-linejoin="round"/>
<path d="M747.519 520.323L759.191 507.606L768.68 494.078L775.896 479.949L780.804 465.428L783.398 450.722L810.214 426.424L810.285 409.797L807.804 393.439L802.88 377.542L795.654 362.285L786.269 347.821L774.896 334.295L761.716 321.827L746.91 310.523L730.668 300.471L713.186 291.748L694.657 284.42L675.28 278.53L655.244 274.122L634.75 271.221L613.989 269.845L593.159 270.003L572.451 271.693L552.06 274.909L532.181 279.623L513.009 285.814L494.74 293.435L477.568 302.437L461.687 312.753L447.291 324.305L434.565 337.001L423.696 350.732L414.856 365.369L408.211 380.773L403.908 396.778L402.07 413.21L428.487 439.044L450.835 465.134L469.176 491.246L483.605 517.177L492.497 538.535L492.85 539.387" stroke="white" stroke-width="1.33333" stroke-linecap="round" stroke-linejoin="round"/>
<path d="M-138.422 459.151L-122.454 454.461L-56.2641 438.851L7.89413 427.411L69.3547 420.032L127.572 416.536L182.118 416.704L232.674 420.271L279.026 426.957L321.053 436.467L358.703 448.502L391.997 462.775L417.417 476.993L421.006 479.002L432.395 494.313L451.689 507.446L455.885 510.301L470.905 523.881L475.511 528.049" stroke="white" stroke-width="1.33333" stroke-linecap="round" stroke-linejoin="round"/>
<path d="M556.536 557.66L557.599 542.004L557.533 519.112L555.973 493.241L552.848 464.503L548.112 433.062L541.743 399.149L533.741 363.058L524.142 325.144L513.008 285.814L500.439 245.528L486.565 204.787L471.544 164.108L455.564 124.023L438.828 85.0599L421.557 47.718L403.979 12.4662L397.57 0.577201" stroke="white" stroke-width="1.33333" stroke-linecap="round" stroke-linejoin="round"/>
<path d="M-138.422 617.361L-125.243 609.857L-58.5328 576.18L6.02208 547.681L67.7492 524.347L126.117 506.057L180.728 492.609L231.304 483.739L277.683 479.145L319.788 478.499L357.623 481.462L391.247 487.698L420.768 496.874L439.512 512.085L460.891 525.693L477.677 533.999" stroke="white" stroke-width="1.33333" stroke-linecap="round" stroke-linejoin="round"/>
<path d="M721.57 539.017L727.422 525.587L728.76 523.304L742.097 500.514L743.62 498.47L760.717 475.492L761.171 462.452L759.674 449.557L756.292 436.963L751.115 424.815L771.632 393.806L795.652 362.285L823.085 330.557L853.793 298.961L887.559 267.862L924.108 237.63L963.098 208.653L1004.13 181.308L1046.73 155.964L1090.43 132.963L1134.68 112.614L1178.94 95.1772L1222.67 80.862L1265.33 69.8213L1306.42 62.1449L1337.76 58.7079" stroke="white" stroke-width="1.33333" stroke-linecap="round" stroke-linejoin="round"/>
<path d="M738.983 525.681L747.377 513.786L753.822 501.336L758.272 488.511L760.718 475.492L762.461 473.587L783.396 450.722L783.704 436.026L781.786 421.528L777.728 407.4L771.633 393.806L763.626 380.889L753.845 368.778L742.445 357.59L729.583 347.426L715.422 338.373L700.136 330.504L683.898 323.883L666.885 318.557L649.272 314.566L631.238 311.938L612.958 310.691L594.613 310.834L576.381 312.367L558.44 315.278L540.968 319.546L524.142 325.144L508.137 332.026L493.13 340.144L479.293 349.433L466.796 359.816L455.803 371.203L446.47 383.49L438.942 396.559L433.359 410.275L454.746 439.526L472.369 468.274L486.28 496.29L496.57 523.386L494.72 532.987L497.116 541.802L501.93 543.922L502.32 544.068L504.827 544.97L507.004 545.786L510.483 547.09L511.059 547.268" stroke="white" stroke-width="1.33333" stroke-linecap="round" stroke-linejoin="round"/>
<path d="M288.156 0.577156L297.58 11.0858L322.992 42.096L348.186 75.5391L372.836 111.014L396.627 148.07L419.256 186.234L440.444 225.012L459.949 263.906L477.567 302.437L493.13 340.145L506.522 376.609L517.666 411.456L526.53 444.361L533.119 475.055L537.476 503.324L539.67 529.009L539.796 552.002L539.549 554.743" stroke="white" stroke-width="1.33333" stroke-linecap="round" stroke-linejoin="round"/>
<path d="M728.441 535.421L729.077 535.047L730.066 534.571L731.922 533.6L732.08 533.519L735.934 530.895L747.517 520.323L752.551 517.076L770.017 505.809L783.321 491.225L794.051 475.751L797.509 473.799L823.638 459.05L832.621 440.624L867.445 423.181L873.698 401.748L876.349 380.247L915.57 358.912L958.716 339.135L1005.56 321.213L1055.78 305.446L1108.99 292.127L1164.69 281.527L1222.3 273.887L1281.2 269.414L1337.76 268.317" stroke="white" stroke-width="1.33333" stroke-linecap="round" stroke-linejoin="round"/>
<path d="M703.336 546.962L706.495 545.702L708.475 545.226L726.262 543.778L745.919 546.437L768.267 553.701L793.438 566.043L838.175 547.583L872.553 562.536L910.485 583.119L961.85 553.807L1005.98 520.826L1042.42 485.046L1098.1 497.459L1157.49 514.603L1220.18 536.676L1285.64 563.792L1337.76 588.645" stroke="white" stroke-width="1.33333" stroke-linecap="round" stroke-linejoin="round"/>
<path d="M751.114 424.815L744.241 413.249L735.785 402.384L725.878 392.327L714.656 383.175L702.266 375.011L688.858 367.906L674.587 361.918L659.61 357.097L644.084 353.484L628.178 351.103L612.048 349.973L595.855 350.103L579.767 351.492L563.944 354.13L548.547 357.995L533.739 363.058L519.678 369.28L506.521 376.609L494.42 384.984L483.526 394.329L473.981 404.56L465.922 415.58L459.471 427.277L454.745 439.526L451.837 452.196L450.832 465.134L451.788 478.184L466.107 497.478L470.145 502.92L481.116 521.828L484.563 527.767L488.654 537.315" stroke="white" stroke-width="1.33333" stroke-linecap="round" stroke-linejoin="round"/>
<path d="M712.941 543.127L712.975 543.001L716.315 530.989L727.026 504.489L741.444 477.28L759.676 449.557L781.787 421.528L807.803 393.439L837.688 365.558L871.351 338.178L908.63 311.611L949.3 286.191L993.047 262.246L1039.5 240.116L1088.19 220.126L1138.62 202.581L1190.2 187.755L1242.32 175.887L1294.33 167.164L1337.76 162.547" stroke="white" stroke-width="1.33333" stroke-linecap="round" stroke-linejoin="round"/>
<path d="M730.078 534.499L730.213 534.242L735.777 523.575L739.817 512.142L742.098 500.514L742.63 488.844L741.442 477.28L738.585 465.968L734.129 455.037L751.115 424.815" stroke="white" stroke-width="1.33333" stroke-linecap="round" stroke-linejoin="round"/>
<path d="M660.892 557.18L660.109 545.587L660.391 522.66L662.399 496.854L666.209 468.281L671.876 437.107L679.425 403.552L688.857 367.906L700.134 330.504L713.183 291.748L727.892 252.085L744.113 211.993L761.667 171.982L780.341 132.57L799.896 94.2712L820.084 57.5779L840.635 22.9529L855.005 0.577092" stroke="white" stroke-width="1.33333" stroke-linecap="round" stroke-linejoin="round"/>
<path d="M732.139 533.12L732.73 531.907L733.237 530.767L747.377 513.787L750.506 510.891L768.678 494.078L771.908 491.745L794.052 475.751L802.126 459.631L807.509 443.111L810.212 426.424L812.539 424.656L841.203 402.846L840.906 384.02L837.687 365.558L831.69 347.672L823.086 330.557L812.062 314.381L798.817 299.29L783.56 285.417L766.512 272.867L747.88 261.73L727.895 252.085L706.763 243.99L684.71 237.495L661.942 232.637L638.68 229.444L615.13 227.928L591.503 228.104L568.009 229.965L544.861 233.503L522.266 238.701L500.439 245.528L479.595 253.948L459.949 263.906L441.72 275.341L425.125 288.172L410.38 302.307L397.699 317.631L387.29 334.014L379.348 351.303L374.056 369.323L371.578 387.877L372.049 406.75L375.575 425.698L403.461 444.681L406.188 446.538L430.135 466.436L432.55 468.444L452.579 488.96L454.742 491.176L470.902 511.984L472.872 514.521L482.829 531.159L485.116 536.622L493.389 540.683" stroke="white" stroke-width="1.33333" stroke-linecap="round" stroke-linejoin="round"/>
<path d="M-138.422 279.978L-128.572 279.451L-68.5596 279.701L-9.2256 283.299L48.7216 290.1L104.642 299.898L157.969 312.456L208.225 327.503L255.021 344.753L298.054 363.909L337.11 384.671L372.05 406.75L400.41 428.065L402.807 429.867L427.29 451.885L429.372 453.758L449.976 476.206L451.79 478.184L454.743 491.176L459.699 503.939L466.637 516.291L474.916 527.261L474.934 528.651L480.5 533.16L481.202 533.63L481.719 533.851L481.908 533.953" stroke="white" stroke-width="1.33333" stroke-linecap="round" stroke-linejoin="round"/>
<path d="M598.122 561.636L598.392 551.875L598.658 532.387L598.731 509.595L598.597 483.552L598.248 454.367L597.678 422.218L596.88 387.359L595.857 350.103L594.612 310.834L593.157 270.003L591.503 228.104L589.669 185.674L587.679 143.275L585.559 101.471L583.337 60.8177L581.041 21.8437L579.691 0.577077" stroke="white" stroke-width="1.33333" stroke-linecap="round" stroke-linejoin="round"/>
<path d="M609.491 561.531L609.412 551.774L609.398 532.29L609.507 509.5L609.745 483.454L610.116 454.265L610.625 422.111L611.271 387.241L612.052 349.973L612.96 310.691L613.99 269.845L615.132 227.928L616.373 185.484L617.693 143.067L619.081 101.247L620.515 60.5775L621.974 21.5875L622.811 0.577021" stroke="white" stroke-width="1.33333" stroke-linecap="round" stroke-linejoin="round"/>
<path d="M142.258 0.577092L150.359 5.4938L183.261 28.2228L216.509 53.9364L249.689 82.3567L282.386 113.143L314.191 145.912L344.713 180.246L373.583 215.701L400.481 251.825L425.126 288.172L447.29 324.305L466.797 359.816L483.529 394.329L497.416 427.511L508.44 459.074L516.627 488.775L522.04 516.419L515.721 523.939L510.449 531.999L506.306 540.516L504.838 544.936" stroke="white" stroke-width="1.33333" stroke-linecap="round" stroke-linejoin="round"/>
<path d="M524.848 550.971L524.777 541.857L531.804 535.095L539.673 529.009L548.285 523.664L557.536 519.112L567.319 515.4L577.524 512.56L588.033 510.619L598.734 509.595L609.508 509.5L620.238 510.333L630.808 512.085L641.1 514.741L651.002 518.279L660.397 522.66L669.182 527.844" stroke="white" stroke-width="1.33333" stroke-linecap="round" stroke-linejoin="round"/>
<path d="M620.765 561.428L620.384 552.647L620.09 533.133L620.235 510.333L620.845 484.3L621.933 455.15L623.519 423.057L625.603 388.27L628.179 351.103L631.238 311.938L634.749 271.221L638.68 229.444L642.986 187.142L647.617 144.871L652.508 103.196L657.598 62.6701L662.815 23.8163L666.153 0.577077" stroke="white" stroke-width="1.33333" stroke-linecap="round" stroke-linejoin="round"/>
<path d="M702.746 547.133L703.918 538.729L710.613 512.181L720.648 484.227L734.129 455.037L728.157 444.608L744.242 413.249L763.626 380.889L786.267 347.821L812.062 314.381L840.847 280.926L872.395 247.849L906.422 215.549L942.582 184.434L980.478 154.909L1019.67 127.361L1059.68 102.15L1100.03 79.5937L1140.21 59.9659L1179.73 43.4821L1218.12 30.2969L1265.33 69.8213L1308.13 113.616L1337.76 151.682" stroke="white" stroke-width="1.33333" stroke-linecap="round" stroke-linejoin="round"/>
<path d="M586.944 560.982L587.447 552.949L587.992 533.421L588.029 510.619L587.527 484.592L586.464 455.455L584.818 423.384L582.586 388.624L579.768 351.492L576.381 312.367L572.449 271.693L568.008 229.965L563.113 187.713L557.82 145.493L552.198 103.869L546.323 63.3915L540.274 24.5838L536.254 0.577097" stroke="white" stroke-width="1.33333" stroke-linecap="round" stroke-linejoin="round"/>
<path d="M706.494 545.702L703.919 538.729L699.484 530.298L693.942 522.34L687.368 514.945L679.855 508.188L684.839 480.148L692.275 449.819L702.213 417.409L714.658 383.175L729.584 347.426L746.909 310.523L766.513 272.867L788.218 234.897L811.809 197.082L837.02 159.895L863.555 123.813L891.081 89.3071L919.25 56.8092L947.701 26.7143L974.828 0.577096" stroke="white" stroke-width="1.33333" stroke-linecap="round" stroke-linejoin="round"/>
<path d="M631.68 560.713L631.195 554.486L630.625 534.903L630.806 512.085L631.779 486.085L633.578 457.017L636.227 425.052L639.732 390.438L644.087 353.484L649.273 314.566L655.243 274.122L661.943 232.637L669.299 190.642L677.222 148.682L685.606 107.316L694.343 67.0917L703.316 28.5299L710.286 0.57707" stroke="white" stroke-width="1.33333" stroke-linecap="round" stroke-linejoin="round"/>
<path d="M222.535 0.57722L226.62 3.98201L255.888 31.0715L285.19 60.9032L314.161 93.1333L342.429 127.367L369.638 163.172L395.451 200.083L419.566 237.631L441.717 275.342L461.682 312.753L479.29 349.433L494.419 384.984L506.992 419.049L516.985 451.323L524.41 481.55L529.32 509.525L531.798 535.095L531.916 552.871" stroke="white" stroke-width="1.33333" stroke-linecap="round" stroke-linejoin="round"/>
<path d="M576.201 560.122L576.698 554.985L577.519 535.382L577.52 512.56L576.654 486.569L574.883 457.522L572.181 425.593L568.532 391.026L563.945 354.129L558.439 315.278L552.058 274.909L544.86 233.503L536.926 191.591L528.349 149.716L519.241 108.435L509.725 68.2932L499.927 29.811L491.926 0.577075" stroke="white" stroke-width="1.33333" stroke-linecap="round" stroke-linejoin="round"/>
<path d="M-138.422 725.08L-135.276 722.605L-69.7752 675.862L-6.0101 634.812L55.2773 599.572L113.503 570.117L168.221 546.298L219.118 527.882L266.006 514.571L308.79 506.022L347.457 501.87L379.644 522.981L415.939 541.355L455.788 556.556L476.459 548.887L494.604 545.88L512.806 550.78L516.567 551.792L526.42 554.443L539.463 555.707L547.621 556.129L556.536 557.66L563.826 558.911L566.088 559.3L566.187 559.316L566.222 559.322" stroke="white" stroke-width="1.33333" stroke-linecap="round" stroke-linejoin="round"/>
<path d="M624.816 561.39L628.027 562.571L631.715 568.371L635.906 579.296L640.633 595.891L645.924 618.727L651.799 648.396L658.275 685.484L665.353 730.549L673.031 784.088L679.153 830.423" stroke="white" stroke-width="1.33333" stroke-linecap="round" stroke-linejoin="round"/>
<path d="M-138.422 394.747L-135.366 394.113L-70.3305 384.332L-6.8642 378.361L54.3366 376.085L112.673 377.323L167.656 381.855L218.902 389.426L266.13 399.758L309.151 412.569L347.858 427.565L382.219 444.465L409.138 461.071L412.256 462.994L421.006 479.002L442.442 494.472L445.841 496.923L463.279 513.163L466.637 516.291L476.73 529.13L478.946 531.569" stroke="white" stroke-width="1.33333" stroke-linecap="round" stroke-linejoin="round"/>
<path d="M692.501 550.108L690.828 547.666L693.942 522.34L699.906 494.984L708.826 465.739L701.089 457.415L692.275 449.819L682.499 443.03L671.879 437.107L660.538 432.108L648.611 428.077L636.226 425.052L623.519 423.057L610.624 422.111L597.678 422.218L584.819 423.384L572.182 425.593L559.901 428.828L548.112 433.062L536.946 438.254L526.53 444.361L516.988 451.323L508.439 459.074L500.996 467.539L509.859 496.658L504.207 505.116L510.448 531.999L512.411 547.63" stroke="white" stroke-width="1.33333" stroke-linecap="round" stroke-linejoin="round"/>
<path d="M690.779 550.608L690.828 547.666L684.492 540.412L677.243 533.781L669.18 527.844L671.498 502.136L675.917 473.811L682.5 443.03L691.282 410.004L702.268 375.011L715.423 338.373L730.668 300.471L747.881 261.73L766.904 222.613L787.529 183.606L809.518 145.209L832.599 107.918L856.479 72.2162L880.849 38.5492L905.396 7.32433L911.189 0.577076" stroke="white" stroke-width="1.33333" stroke-linecap="round" stroke-linejoin="round"/>
<path d="M563.828 558.911L566.265 557.963L576.702 554.984L587.45 552.948L598.395 551.875L609.413 551.774L620.387 552.647L631.197 554.486L641.725 557.273L646.99 559.202" stroke="white" stroke-width="1.33333" stroke-linecap="round" stroke-linejoin="round"/>
<path d="M641.986 559.696L641.72 557.273L640.879 537.587L641.095 514.741L642.426 488.791L644.918 459.845L648.608 428.077L653.507 393.728L659.61 357.097L666.883 318.557L675.277 278.531L684.708 237.495L695.075 195.968L706.258 154.485L718.113 113.597L730.485 73.8402L743.205 35.7296L755.806 0.57721" stroke="white" stroke-width="1.33333" stroke-linecap="round" stroke-linejoin="round"/>
<path d="M-138.422 335.703L-137 335.522L-74.1041 331.037L-12.3142 330.095L47.6563 332.562L105.178 338.248L159.713 346.931L210.828 358.346L258.176 372.22L301.514 388.261L340.677 406.182L375.576 425.698L382.219 444.465L391.997 462.775L404.879 480.341L420.768 496.875L446.33 508.681L462.662 521.866L474.396 529.295L478.656 531.699L479.907 532.557L480.651 533.337L480.809 533.477L481.202 533.63" stroke="white" stroke-width="1.33333" stroke-linecap="round" stroke-linejoin="round"/>
<path d="M566.087 559.3L566.261 557.963L567.348 538.251L567.315 515.4L566.096 489.461L563.636 460.545L559.9 428.828L554.87 394.544L548.548 357.995L540.967 319.546L532.178 279.623L522.265 238.701L511.332 197.291L499.51 155.928L486.944 115.157L473.803 75.5195L460.262 37.522L446.502 1.64013L446.062 0.57715" stroke="white" stroke-width="1.33333" stroke-linecap="round" stroke-linejoin="round"/>
<path d="M716.93 541.446L717.134 540.729L727.991 514.996L742.627 488.844L761.169 462.451L783.702 436.026L810.281 409.797L840.903 384.02L875.512 358.97L913.987 334.943L956.133 312.246L1001.68 291.195L1050.26 272.107L1101.46 255.288L1154.76 241.023L1209.58 229.574L1265.28 221.16L1321.18 215.953L1337.75 215.392" stroke="white" stroke-width="1.33333" stroke-linecap="round" stroke-linejoin="round"/>
<path d="M717.095 541.357L717.134 540.729L716.311 530.989L714.12 521.436L710.61 512.181L705.845 503.331L699.903 494.984L692.867 487.228L701.086 457.415L712.082 425.699L725.876 392.327L742.442 357.59L761.711 321.827L783.557 285.417L807.806 248.776L834.229 212.341L862.546 176.567L892.432 141.913L923.533 108.823L955.46 77.7192L987.813 48.9874L1020.18 22.9679L1051.29 0.577034" stroke="white" stroke-width="1.33333" stroke-linecap="round" stroke-linejoin="round"/>
<path d="M518.636 549.304L518.681 549.232L515.72 523.939L509.859 496.657L516.626 488.775L524.413 481.549L533.119 475.055L542.635 469.353L552.849 464.502L563.638 460.545L574.884 457.522L586.465 455.455L598.249 454.367L610.115 454.265L621.934 455.15L633.578 457.016L644.921 459.845L655.841 463.613L666.212 468.281L675.916 473.811L684.839 480.148L692.871 487.228L687.368 514.945L684.492 540.412L684.3 552.487" stroke="white" stroke-width="1.33333" stroke-linecap="round" stroke-linejoin="round"/>
<path d="M518.681 549.315L518.68 549.232L524.774 541.857L522.038 516.419L529.322 509.525L537.475 503.324L546.394 497.879L555.972 493.241L566.096 489.461L576.655 486.569L587.527 484.592L598.596 483.552L609.742 483.454L620.844 484.3L631.778 486.085L642.427 488.791L652.675 492.392L662.401 496.854L671.497 502.136L679.854 508.188L677.241 533.781L676.941 554.109" stroke="white" stroke-width="1.33333" stroke-linecap="round" stroke-linejoin="round"/>
<path d="M716.449 542.359L717.173 541.699L717.186 541.312L722.506 539.101L725.885 537.606L725.295 536.123L727.008 533.29L729.325 529.464L739.816 512.142L741.676 509.761L744.417 506.251L758.272 488.512L760.336 486.396L780.802 465.428L783.127 463.485L807.508 443.111L810.15 441.293L838.465 421.798L841.478 420.086L873.698 401.748L913.164 383.233L956.77 366.539L1004.33 351.954L1055.6 339.771L1110.2 330.265L1167.69 323.702L1227.52 320.307L1289.06 320.273L1337.76 322.969" stroke="white" stroke-width="1.33333" stroke-linecap="round" stroke-linejoin="round"/>
<path d="M730.188 534.428L732.11 533.32L733.778 532.022L735.935 530.895L757.597 523.031L782.328 517.939L810.616 516.413L842.61 518.837L878.437 525.606L913.63 500.667L957.732 508.416L1005.98 520.826L1058.28 538.229" stroke="white" stroke-width="1.33333" stroke-linecap="round" stroke-linejoin="round"/>
<path d="M726.891 537.925L734.423 535.178L741.251 531.6L757.596 523.031L778.342 509.072L796.389 493.566L826.79 483.882L843.958 464.584L880.7 454.889L921.808 448.008L967.287 444.25L1017.05 443.924L1070.95 447.324L1128.71 454.722L1189.97 466.355L1254.21 482.4L1320.81 502.965L1337.76 509.201" stroke="white" stroke-width="1.33333" stroke-linecap="round" stroke-linejoin="round"/>
<path d="M732.141 533.12L733.78 532.022L740.79 527.655L754.268 519.255L778.344 509.072L806.175 501.78L837.917 497.711L873.707 497.221L913.631 500.667L943.331 473.348L990.773 477.107L1042.42 485.045" stroke="white" stroke-width="1.33333" stroke-linecap="round" stroke-linejoin="round"/>
<path d="M669.177 527.844L668.863 550.826" stroke="white" stroke-width="1.33333" stroke-miterlimit="10"/>
</g>
</g>
<defs>
<clipPath id="clip0_2883_1677">
<rect width="1200" height="675" fill="white"/>
</clipPath>
</defs>
</svg>
