<svg xmlns="http://www.w3.org/2000/svg" width="128" height="128" viewBox="0 0 128 128">
<g>
<path d="M 21.80 95.22 C19.82,100.52 16.00,100.70 16.00,95.49 C16.00,94.32 14.71,92.42 13.11,91.24 C10.75,89.50 9.91,87.68 8.50,81.33 C4.41,62.99 7.97,38.29 15.50,32.77 C17.66,31.18 18.16,32.20 17.51,36.89 C17.08,40.02 17.23,42.03 17.92,42.45 C18.51,42.82 19.00,44.23 19.00,45.60 C19.00,47.09 20.51,49.70 22.78,52.14 C26.51,56.13 26.64,56.17 30.63,55.10 C32.86,54.50 35.48,53.12 36.46,52.04 C39.11,49.12 39.56,41.92 37.52,35.41 C35.62,29.39 35.93,24.28 38.48,19.38 C39.31,17.80 39.99,15.11 39.99,13.40 C40.00,9.99 43.09,6.44 45.31,7.29 C46.22,7.64 46.93,10.33 47.38,15.13 C47.93,21.06 48.54,22.95 50.60,25.11 C57.41,32.21 64.32,32.61 70.66,26.28 C74.93,22.01 75.99,16.62 73.98,9.45 C72.58,4.42 73.67,1.69 75.96,4.46 C76.67,5.31 78.00,6.00 78.91,6.00 C81.66,6.00 89.40,14.60 89.46,17.71 C89.48,19.43 90.26,20.81 91.56,21.46 C93.54,22.46 93.60,23.12 93.17,37.50 C92.44,61.73 92.48,62.77 94.40,64.89 C95.36,65.95 97.39,67.33 98.92,67.97 C101.34,68.97 102.28,68.76 106.31,66.31 C109.37,64.45 111.60,62.12 112.89,59.43 C114.52,56.04 115.33,55.36 117.78,55.36 L 120.72 55.36 L 120.82 62.43 C120.98,73.64 117.61,87.93 114.14,90.76 C113.29,91.45 112.12,93.47 111.55,95.26 C110.85,97.42 109.77,98.60 108.31,98.81 C106.31,99.10 106.05,98.56 105.42,93.00 C104.87,88.14 104.25,86.55 102.41,85.35 C99.74,83.60 96.36,84.31 95.55,86.80 C95.25,87.74 93.46,89.55 91.58,90.83 C85.95,94.65 82.83,91.86 80.88,81.29 C79.11,71.72 73.85,63.43 66.33,58.32 C59.99,54.01 59.18,55.00 58.46,67.89 C58.00,76.13 57.84,76.58 54.29,80.22 C51.32,83.26 49.86,84.00 46.86,84.00 C43.67,84.00 42.62,83.37 39.52,79.59 C35.29,74.42 34.51,74.04 30.44,75.14 C27.62,75.89 27.21,76.60 25.10,84.23 C23.84,88.78 22.36,93.72 21.80,95.22 Z" fill="rgb(65,253,176)"/>
<path d="M 21.80 95.22 C22.36,93.72 23.84,88.78 25.10,84.23 C27.21,76.60 27.62,75.89 30.44,75.14 C34.51,74.04 35.29,74.42 39.52,79.59 C42.62,83.37 43.67,84.00 46.86,84.00 C49.86,84.00 51.32,83.26 54.29,80.22 C57.84,76.58 58.00,76.13 58.46,67.89 C59.18,55.00 59.99,54.01 66.33,58.32 C73.85,63.43 79.11,71.72 80.88,81.29 C82.83,91.86 85.95,94.65 91.58,90.83 C93.46,89.55 95.25,87.74 95.55,86.80 C96.36,84.31 99.74,83.60 102.41,85.35 C104.25,86.55 104.87,88.14 105.42,93.00 C106.05,98.56 106.31,99.10 108.31,98.81 C109.77,98.60 110.85,97.42 111.55,95.26 C112.12,93.47 113.29,91.45 114.14,90.76 C117.61,87.93 120.98,73.64 120.82,62.43 L 120.72 55.36 L 117.78 55.36 C115.33,55.36 114.52,56.04 112.89,59.43 C111.60,62.12 109.37,64.45 106.31,66.31 C102.28,68.76 101.34,68.97 98.92,67.97 C97.39,67.33 95.36,65.95 94.40,64.89 C92.48,62.77 92.44,61.73 93.17,37.50 C93.60,23.12 93.54,22.46 91.56,21.46 C90.26,20.81 89.48,19.43 89.46,17.71 C89.43,16.38 88.01,14.06 86.17,11.82 C89.51,15.30 92.33,18.69 93.15,20.30 C96.01,25.90 96.50,33.29 95.00,48.05 C93.81,59.71 93.84,61.10 95.36,63.42 C100.00,70.50 109.01,65.91 114.37,53.74 C116.94,47.90 119.54,45.64 121.00,48.01 C122.49,50.41 123.18,68.32 122.06,75.50 C120.84,83.31 115.43,95.01 110.34,100.87 L 107.18 104.50 L 106.09 101.69 C105.49,100.15 104.73,97.00 104.38,94.69 C103.24,86.93 99.58,83.69 97.13,88.26 C95.57,91.17 89.97,95.00 87.28,95.00 C83.58,95.00 80.47,89.93 78.68,81.00 C76.75,71.40 73.64,65.91 67.41,61.14 C61.18,56.37 59.55,57.27 60.42,64.99 C60.80,68.40 60.64,72.56 60.03,74.72 C58.56,79.94 52.37,85.90 47.61,86.68 C44.03,87.26 43.58,87.01 38.59,81.64 C35.70,78.54 32.83,76.00 32.20,76.00 C29.88,76.00 24.35,90.07 23.37,98.49 C23.05,101.25 22.45,103.87 22.03,104.32 C20.76,105.67 13.98,96.96 10.36,89.32 C5.89,79.89 4.66,72.78 5.29,60.00 C5.71,51.35 6.33,48.21 8.83,42.16 C12.47,33.33 16.67,26.73 18.31,27.27 C19.07,27.52 19.71,31.18 20.07,37.35 C20.62,46.67 20.78,47.17 24.02,50.52 C28.11,54.74 30.00,54.86 34.15,51.16 C37.03,48.59 37.29,47.87 36.98,43.41 C36.84,41.34 36.70,36.62 36.62,31.77 C36.82,32.95 37.12,34.16 37.52,35.41 C39.56,41.92 39.11,49.12 36.46,52.04 C35.48,53.12 32.86,54.50 30.63,55.10 C26.64,56.17 26.51,56.13 22.78,52.14 C20.51,49.70 19.00,47.09 19.00,45.60 C19.00,44.23 18.51,42.82 17.92,42.45 C17.23,42.03 17.08,40.02 17.51,36.89 C18.16,32.20 17.66,31.18 15.50,32.77 C7.97,38.29 4.41,62.99 8.50,81.33 C9.91,87.68 10.75,89.50 13.11,91.24 C14.71,92.42 16.00,94.32 16.00,95.49 C16.00,100.70 19.82,100.52 21.80,95.22 Z" fill="rgb(84,245,181)"/>
<path d="M 5.53 73.27 C6.19,78.92 7.70,83.71 10.36,89.32 C13.98,96.96 20.76,105.67 22.03,104.32 C22.45,103.87 23.05,101.25 23.37,98.49 C24.35,90.07 29.88,76.00 32.20,76.00 C32.83,76.00 35.70,78.54 38.59,81.64 C43.58,87.01 44.03,87.26 47.61,86.68 C52.37,85.90 58.56,79.94 60.03,74.72 C60.64,72.56 60.80,68.40 60.42,64.99 C59.55,57.27 61.18,56.37 67.41,61.14 C73.64,65.91 76.75,71.40 78.68,81.00 C80.47,89.93 83.58,95.00 87.28,95.00 C89.97,95.00 95.57,91.17 97.13,88.26 C99.58,83.69 103.24,86.93 104.38,94.69 C104.73,97.00 105.49,100.15 106.09,101.69 L 106.60 103.02 L 105.13 99.79 C103.96,97.21 103.00,94.50 103.00,93.75 C103.00,92.03 100.99,90.00 99.29,90.00 C98.57,90.00 96.12,91.35 93.84,93.00 C91.56,94.65 88.67,96.00 87.41,96.00 C83.61,96.00 80.43,92.05 78.54,85.00 C75.41,73.31 73.71,69.57 69.47,65.09 C63.76,59.05 62.00,59.79 62.00,68.26 C62.00,79.40 56.62,86.72 47.70,87.73 C43.41,88.21 42.91,88.00 38.25,83.64 C34.09,79.74 33.08,79.23 31.70,80.27 C29.35,82.03 25.35,93.43 24.52,100.73 C23.88,106.32 23.62,106.87 22.02,106.01 C19.40,104.61 13.26,95.69 9.88,88.39 C7.53,83.32 6.15,78.71 5.53,73.27 Z" fill="rgb(126,248,199)"/>
<path d="M 21.39 105.59 C21.62,105.77 21.83,105.91 22.02,106.01 C23.62,106.87 23.88,106.32 24.52,100.73 C25.35,93.43 29.35,82.03 31.70,80.27 C33.08,79.23 34.09,79.74 38.25,83.64 C42.91,88.00 43.41,88.21 47.70,87.73 C56.62,86.72 62.00,79.40 62.00,68.26 C62.00,59.79 63.76,59.05 69.47,65.09 C73.71,69.57 75.41,73.31 78.54,85.00 C80.43,92.05 83.61,96.00 87.41,96.00 C88.67,96.00 91.56,94.65 93.84,93.00 C96.12,91.35 98.57,90.00 99.29,90.00 C100.99,90.00 103.00,92.03 103.00,93.75 C103.00,94.50 103.96,97.21 105.13,99.79 L 106.60 103.02 L 107.00 104.04 C106.51,104.56 106.02,105.07 105.50,105.59 C92.37,118.87 81.18,123.94 65.00,123.98 C53.98,124.00 45.29,121.89 36.97,117.15 C30.55,113.50 25.54,109.84 21.39,105.59 Z" fill="rgb(164,252,215)"/>
</g>
</svg>